{
	"asset":{
		"version":"2.0",
		"generator":"Maxon Cinema 4D 2024.2.0 (#200000219)"
	},
	"scenes":[{
		"nodes":[0]
	}],
	"nodes":[{
		"name":"Playground_WOOD",
		"mesh":0,
		"translation":[-0.4072211980819702,
		-8.881783998477906e-18,
		-0.0017603611340746284],
		"rotation":[0.0,
		0.0,
		0.0,
		-1.0],
		"scale":[1.0,
		1.0,
		1.0]
	}],
	"meshes":[{
		"name":"Playground_WOOD",
		"primitives":[{
			"material":0,
			"attributes":{
				"POSITION":1,
				"NORMAL":2,
				"TEXCOORD_0":3
			},
			"indices":0
		}]
	}],
	"accessors":[{
		"bufferView":0,
		"type":"SCALAR",
		"componentType":5123,
		"count":4500,
		"byteOffset":0,
		"min":[0],
		"max":[4499]
	},
	{
		"bufferView":1,
		"type":"VEC3",
		"componentType":5126,
		"count":4500,
		"byteOffset":0,
		"min":[-228.52967834472657,
		-136.24526977539063,
		-116.33897399902344],
		"max":[228.52967834472657,
		136.24526977539063,
		112.6185073852539]
	},
	{
		"bufferView":1,
		"type":"VEC3",
		"componentType":5126,
		"count":4500,
		"byteOffset":12,
		"min":[-0.996764600276947,
		-0.9971599578857422,
		-1.0],
		"max":[0.996764600276947,
		0.996764600276947,
		1.0]
	},
	{
		"bufferView":1,
		"type":"VEC2",
		"componentType":5126,
		"count":4500,
		"byteOffset":24,
		"min":[0.0033195174764841797,
		0.003319517243653536],
		"max":[0.8663551211357117,
		0.996680498123169]
	}],
	"bufferViews":[{
		"buffer":0,
		"byteOffset":0,
		"byteLength":9000,
		"target":34963
	},
	{
		"buffer":0,
		"byteOffset":9000,
		"byteLength":144000,
		"target":34962,
		"byteStride":32
	}],
	"buffers":[{
		"uri":"data:application/octet-stream;base64,",
		"byteLength":153000
	}],
	"materials":[{
		"pbrMetallicRoughness":{
			"baseColorFactor":[0.0,
			0.4399999999999999,
			0.8,
			1.0],
			"metallicFactor":0.0,
			"roughnessFactor":0.5
		},
		"emissiveFactor":[0.0,
		0.0,
		0.0],
		"alphaMode":"OPAQUE",
		"doubleSided":false,
		"name":"Mat"
	}]
}